<svg xmlns="http://www.w3.org/2000/svg" width="1080" height="1920" viewBox="0 0 1080 1920">
  <defs>
    <linearGradient id="bg" x1="0" y1="0" x2="0" y2="1">
      <stop offset="0%"  stop-color="#070a24"/>
      <stop offset="100%" stop-color="#161d4d"/>
    </linearGradient>
  </defs>
  <rect width="1080" height="1920" fill="url(#bg)"/>

  <!-- декоративная волна (вертикальные линии с амплитудой по синусу) -->
  <g stroke="#4FC3F7" stroke-width="3" stroke-linecap="round">
    <!-- сгенерим много линий по горизонтали -->
    <line x1="120"  y1="1000" x2="120"  y2="1040" opacity="0.20"/>
    <line x1="140"  y1="980"  x2="140"  y2="1060" opacity="0.25"/>
    <line x1="160"  y1="950"  x2="160"  y2="1090" opacity="0.35"/>
    <line x1="180"  y1="910"  x2="180"  y2="1130" opacity="0.45"/>
    <line x1="200"  y1="880"  x2="200"  y2="1160" opacity="0.55"/>
    <line x1="220"  y1="900"  x2="220"  y2="1140" opacity="0.60"/>
    <line x1="240"  y1="930"  x2="240"  y2="1110" opacity="0.55"/>
    <line x1="260"  y1="960"  x2="260"  y2="1080" opacity="0.45"/>
    <line x1="280"  y1="985"  x2="280"  y2="1055" opacity="0.40"/>
    <line x1="300"  y1="975"  x2="300"  y2="1065" opacity="0.45"/>
    <line x1="320"  y1="955"  x2="320"  y2="1085" opacity="0.55"/>
    <line x1="340"  y1="925"  x2="340"  y2="1115" opacity="0.65"/>
    <line x1="360"  y1="890"  x2="360"  y2="1150" opacity="0.75"/>
    <line x1="380"  y1="860"  x2="380"  y2="1180" opacity="0.85"/>
    <line x1="400"  y1="840"  x2="400"  y2="1200" opacity="0.95"/>
    <line x1="420"  y1="830"  x2="420"  y2="1210" opacity="1.00"/>
    <line x1="440"  y1="850"  x2="440"  y2="1190" opacity="0.95"/>
    <line x1="460"  y1="880"  x2="460"  y2="1160" opacity="0.85"/>
    <line x1="480"  y1="920"  x2="480"  y2="1120" opacity="0.70"/>
    <line x1="500"  y1="950"  x2="500"  y2="1090" opacity="0.55"/>
    <line x1="520"  y1="970"  x2="520"  y2="1070" opacity="0.45"/>
    <line x1="540"  y1="985"  x2="540"  y2="1055" opacity="0.40"/>
    <line x1="560"  y1="975"  x2="560"  y2="1065" opacity="0.45"/>
    <line x1="580"  y1="955"  x2="580"  y2="1085" opacity="0.55"/>
    <line x1="600"  y1="930"  x2="600"  y2="1110" opacity="0.65"/>
    <line x1="620"  y1="900"  x2="620"  y2="1140" opacity="0.75"/>
    <line x1="640"  y1="875"  x2="640"  y2="1165" opacity="0.85"/>
    <line x1="660"  y1="860"  x2="660"  y2="1180" opacity="0.90"/>
    <line x1="680"  y1="855"  x2="680"  y2="1185" opacity="0.92"/>
    <line x1="700"  y1="870"  x2="700"  y2="1170" opacity="0.85"/>
    <line x1="720"  y1="900"  x2="720"  y2="1140" opacity="0.75"/>
    <line x1="740"  y1="930"  x2="740"  y2="1110" opacity="0.65"/>
    <line x1="760"  y1="955"  x2="760"  y2="1085" opacity="0.55"/>
    <line x1="780"  y1="975"  x2="780"  y2="1065" opacity="0.45"/>
    <line x1="800"  y1="985"  x2="800"  y2="1055" opacity="0.40"/>
    <line x1="820"  y1="975"  x2="820"  y2="1065" opacity="0.45"/>
    <line x1="840"  y1="950"  x2="840"  y2="1090" opacity="0.55"/>
    <line x1="860"  y1="915"  x2="860"  y2="1125" opacity="0.65"/>
    <line x1="880"  y1="880"  x2="880"  y2="1160" opacity="0.75"/>
    <line x1="900"  y1="855"  x2="900"  y2="1185" opacity="0.85"/>
    <line x1="920"  y1="870"  x2="920"  y2="1170" opacity="0.80"/>
    <line x1="940"  y1="900"  x2="940"  y2="1140" opacity="0.70"/>
    <line x1="960"  y1="935"  x2="960"  y2="1105" opacity="0.55"/>
    <line x1="980"  y1="965"  x2="980"  y2="1075" opacity="0.40"/>
    <line x1="1000" y1="985"  x2="1000" y2="1055" opacity="0.30"/>
  </g>

  <!-- левая вертикальная акцент-полоса -->
  <rect x="80" y="975" width="6" height="370" fill="#4FC3F7"/>
</svg>
